<svg xmlns="http://www.w3.org/2000/svg" viewBox="0 0 25 25"><path fill="#2b3344" d="M12.5,22.875A10.375,10.375,0,1,1,22.875,12.5,10.386,10.386,0,0,1,12.5,22.875Zm0-20A9.625,9.625,0,1,0,22.125,12.5,9.636,9.636,0,0,0,12.5,2.875Z"/><path fill="#2b3344" d="M13.6 18.238H11.4a.375.375 0 0 1-.375-.375V11.018a.375.375 0 0 1 .375-.375h2.2a.375.375 0 0 1 .375.375v6.845A.375.375 0 0 1 13.6 18.238zm-1.823-.75h1.448V11.393H11.776zM12.5 9.709a1.474 1.474 0 1 1 1.474-1.473A1.475 1.475 0 0 1 12.5 9.709zm0-2.2a.724.724 0 1 0 .724.724A.725.725 0 0 0 12.5 7.512z"/></svg>