<svg width="334" height="275" viewBox="0 0 334 275" fill="none" xmlns="http://www.w3.org/2000/svg">
<path d="M158.678 136.51L119.008 205.02H39.6694L0 136.51L39.6694 68H119.008L158.678 136.51Z" fill="#5F5FAD"/>
<path d="M198.017 68.5098L158.347 137.02H79.0083L39.3389 68.5098L79.0083 0H158.347L198.017 68.5098Z" fill="#7474C6" fill-opacity="0.7"/>
<path d="M198.017 205.51L158.347 274.02H79.0083L39.3389 205.51L79.0083 137H158.347L198.017 205.51Z" fill="#C3C3D7" fill-opacity="0.7"/>
<path d="M38.8389 155.5C36.1389 155.5 33.6055 155 31.2389 154C28.9055 152.967 26.8555 151.55 25.0889 149.75C23.3555 147.917 21.9889 145.783 20.9889 143.35C20.0222 140.917 19.5389 138.283 19.5389 135.45C19.5389 132.65 20.0222 130.05 20.9889 127.65C21.9889 125.217 23.3555 123.1 25.0889 121.3C26.8555 119.467 28.9055 118.033 31.2389 117C33.5722 115.967 36.1055 115.45 38.8389 115.45C41.4055 115.45 43.6055 115.783 45.4389 116.45C47.3055 117.117 49.1722 118.217 51.0389 119.75C51.4389 120.083 51.7055 120.4 51.8389 120.7C51.9722 121 52.0389 121.367 52.0389 121.8C52.0389 122.433 51.8055 122.967 51.3389 123.4C50.9055 123.8 50.3722 124.033 49.7389 124.1C49.1055 124.133 48.4889 123.917 47.8889 123.45C46.6555 122.383 45.3722 121.567 44.0389 121C42.7389 120.433 41.0055 120.15 38.8389 120.15C36.8722 120.15 35.0222 120.55 33.2889 121.35C31.5555 122.15 30.0222 123.25 28.6889 124.65C27.3889 126.05 26.3722 127.683 25.6389 129.55C24.9055 131.383 24.5389 133.35 24.5389 135.45C24.5389 137.583 24.9055 139.583 25.6389 141.45C26.3722 143.283 27.3889 144.9 28.6889 146.3C30.0222 147.7 31.5555 148.8 33.2889 149.6C35.0222 150.367 36.8722 150.75 38.8389 150.75C40.5389 150.75 42.1389 150.467 43.6389 149.9C45.1722 149.3 46.6389 148.483 48.0389 147.45C48.6389 147.017 49.2222 146.833 49.7889 146.9C50.3889 146.933 50.8889 147.167 51.2889 147.6C51.6889 148 51.8889 148.567 51.8889 149.3C51.8889 150 51.6222 150.617 51.0889 151.15C47.4889 154.05 43.4055 155.5 38.8389 155.5ZM78.2561 155.5C75.3227 155.5 72.6394 155.017 70.2061 154.05C67.7727 153.05 65.6727 151.667 63.9061 149.9C62.1727 148.1 60.8227 145.983 59.8561 143.55C58.8894 141.083 58.4061 138.383 58.4061 135.45C58.4061 132.517 58.8894 129.833 59.8561 127.4C60.8227 124.967 62.1727 122.867 63.9061 121.1C65.6727 119.3 67.7727 117.917 70.2061 116.95C72.6394 115.95 75.3227 115.45 78.2561 115.45C81.1894 115.45 83.8561 115.95 86.2561 116.95C88.6894 117.917 90.7894 119.3 92.5561 121.1C94.3227 122.867 95.6894 124.967 96.6561 127.4C97.6227 129.833 98.1061 132.517 98.1061 135.45C98.1061 138.383 97.6227 141.083 96.6561 143.55C95.6894 145.983 94.3227 148.1 92.5561 149.9C90.7894 151.667 88.6894 153.05 86.2561 154.05C83.8561 155.017 81.1894 155.5 78.2561 155.5ZM78.2561 150.8C81.1561 150.8 83.7227 150.133 85.9561 148.8C88.1894 147.433 89.9394 145.6 91.2061 143.3C92.4727 140.967 93.1061 138.35 93.1061 135.45C93.1061 132.55 92.4727 129.95 91.2061 127.65C89.9394 125.317 88.1894 123.483 85.9561 122.15C83.7227 120.817 81.1561 120.15 78.2561 120.15C75.3561 120.15 72.7894 120.817 70.5561 122.15C68.3227 123.483 66.5727 125.317 65.3061 127.65C64.0394 129.95 63.4061 132.55 63.4061 135.45C63.4061 138.35 64.0394 140.967 65.3061 143.3C66.5727 145.6 68.3227 147.433 70.5561 148.8C72.7894 150.133 75.3561 150.8 78.2561 150.8ZM108.851 155C108.118 155 107.501 154.75 107.001 154.25C106.501 153.75 106.251 153.133 106.251 152.4V118.55C106.251 117.783 106.501 117.167 107.001 116.7C107.501 116.2 108.118 115.95 108.851 115.95H118.851C121.351 115.95 123.568 116.5 125.501 117.6C127.434 118.7 128.934 120.233 130.001 122.2C131.101 124.133 131.651 126.367 131.651 128.9C131.651 131.333 131.101 133.5 130.001 135.4C128.934 137.3 127.434 138.783 125.501 139.85C123.568 140.917 121.351 141.45 118.851 141.45H111.451V152.4C111.451 153.133 111.201 153.75 110.701 154.25C110.234 154.75 109.618 155 108.851 155ZM111.451 136.65H118.851C121.118 136.65 122.984 135.933 124.451 134.5C125.918 133.033 126.651 131.167 126.651 128.9C126.651 127.3 126.318 125.9 125.651 124.7C124.984 123.467 124.068 122.5 122.901 121.8C121.734 121.1 120.384 120.75 118.851 120.75H111.451V136.65ZM149.103 155C148.403 155 147.803 154.75 147.303 154.25C146.803 153.75 146.553 153.133 146.553 152.4V140.75L133.203 120C132.77 119.3 132.603 118.65 132.703 118.05C132.803 117.417 133.087 116.917 133.553 116.55C134.053 116.15 134.62 115.95 135.253 115.95C135.82 115.95 136.27 116.083 136.603 116.35C136.937 116.583 137.253 116.933 137.553 117.4L149.253 135.95L161.153 117.2C161.687 116.367 162.453 115.95 163.453 115.95C164.053 115.95 164.553 116.167 164.953 116.6C165.353 117 165.587 117.517 165.653 118.15C165.72 118.75 165.553 119.367 165.153 120L151.703 140.75V152.4C151.703 153.133 151.453 153.75 150.953 154.25C150.453 154.75 149.837 155 149.103 155Z" fill="#FEFEFF"/>
<path d="M188.399 155.5C185.699 155.5 183.166 155 180.799 154C178.466 152.967 176.416 151.55 174.649 149.75C172.916 147.917 171.549 145.783 170.549 143.35C169.583 140.917 169.099 138.283 169.099 135.45C169.099 132.65 169.583 130.05 170.549 127.65C171.549 125.217 172.916 123.1 174.649 121.3C176.416 119.467 178.466 118.033 180.799 117C183.133 115.967 185.666 115.45 188.399 115.45C190.966 115.45 193.166 115.783 194.999 116.45C196.866 117.117 198.733 118.217 200.599 119.75C200.999 120.083 201.266 120.4 201.399 120.7C201.533 121 201.599 121.367 201.599 121.8C201.599 122.433 201.366 122.967 200.899 123.4C200.466 123.8 199.933 124.033 199.299 124.1C198.666 124.133 198.049 123.917 197.449 123.45C196.216 122.383 194.933 121.567 193.599 121C192.299 120.433 190.566 120.15 188.399 120.15C186.433 120.15 184.583 120.55 182.849 121.35C181.116 122.15 179.583 123.25 178.249 124.65C176.949 126.05 175.933 127.683 175.199 129.55C174.466 131.383 174.099 133.35 174.099 135.45C174.099 137.583 174.466 139.583 175.199 141.45C175.933 143.283 176.949 144.9 178.249 146.3C179.583 147.7 181.116 148.8 182.849 149.6C184.583 150.367 186.433 150.75 188.399 150.75C190.099 150.75 191.699 150.467 193.199 149.9C194.733 149.3 196.199 148.483 197.599 147.45C198.199 147.017 198.783 146.833 199.349 146.9C199.949 146.933 200.449 147.167 200.849 147.6C201.249 148 201.449 148.567 201.449 149.3C201.449 150 201.183 150.617 200.649 151.15C197.049 154.05 192.966 155.5 188.399 155.5ZM227.817 155.5C224.883 155.5 222.2 155.017 219.767 154.05C217.333 153.05 215.233 151.667 213.467 149.9C211.733 148.1 210.383 145.983 209.417 143.55C208.45 141.083 207.967 138.383 207.967 135.45C207.967 132.517 208.45 129.833 209.417 127.4C210.383 124.967 211.733 122.867 213.467 121.1C215.233 119.3 217.333 117.917 219.767 116.95C222.2 115.95 224.883 115.45 227.817 115.45C230.75 115.45 233.417 115.95 235.817 116.95C238.25 117.917 240.35 119.3 242.117 121.1C243.883 122.867 245.25 124.967 246.217 127.4C247.183 129.833 247.667 132.517 247.667 135.45C247.667 138.383 247.183 141.083 246.217 143.55C245.25 145.983 243.883 148.1 242.117 149.9C240.35 151.667 238.25 153.05 235.817 154.05C233.417 155.017 230.75 155.5 227.817 155.5ZM227.817 150.8C230.717 150.8 233.283 150.133 235.517 148.8C237.75 147.433 239.5 145.6 240.767 143.3C242.033 140.967 242.667 138.35 242.667 135.45C242.667 132.55 242.033 129.95 240.767 127.65C239.5 125.317 237.75 123.483 235.517 122.15C233.283 120.817 230.717 120.15 227.817 120.15C224.917 120.15 222.35 120.817 220.117 122.15C217.883 123.483 216.133 125.317 214.867 127.65C213.6 129.95 212.967 132.55 212.967 135.45C212.967 138.35 213.6 140.967 214.867 143.3C216.133 145.6 217.883 147.433 220.117 148.8C222.35 150.133 224.917 150.8 227.817 150.8ZM258.412 155C257.678 155 257.062 154.75 256.562 154.25C256.062 153.75 255.812 153.133 255.812 152.4V118.55C255.812 117.783 256.062 117.167 256.562 116.7C257.062 116.2 257.678 115.95 258.412 115.95H267.462C270.328 115.95 272.928 116.433 275.262 117.4C277.628 118.333 279.678 119.683 281.412 121.45C283.145 123.183 284.478 125.233 285.412 127.6C286.345 129.967 286.812 132.583 286.812 135.45C286.812 138.317 286.345 140.95 285.412 143.35C284.478 145.717 283.145 147.783 281.412 149.55C279.678 151.283 277.628 152.633 275.262 153.6C272.928 154.533 270.328 155 267.462 155H258.412ZM261.012 150.4H267.462C270.262 150.4 272.728 149.767 274.862 148.5C277.028 147.2 278.728 145.433 279.962 143.2C281.195 140.933 281.812 138.35 281.812 135.45C281.812 132.517 281.195 129.933 279.962 127.7C278.728 125.467 277.028 123.717 274.862 122.45C272.728 121.183 270.262 120.55 267.462 120.55H261.012V150.4ZM297.572 155C296.838 155 296.222 154.75 295.722 154.25C295.222 153.75 294.972 153.133 294.972 152.4V118.55C294.972 117.783 295.222 117.167 295.722 116.7C296.222 116.2 296.838 115.95 297.572 115.95H320.172C320.938 115.95 321.555 116.183 322.022 116.65C322.488 117.083 322.722 117.667 322.722 118.4C322.722 119.1 322.488 119.667 322.022 120.1C321.555 120.533 320.938 120.75 320.172 120.75H300.172V132.9H314.522C315.288 132.9 315.905 133.133 316.372 133.6C316.838 134.033 317.072 134.6 317.072 135.3C317.072 136 316.838 136.583 316.372 137.05C315.905 137.483 315.288 137.7 314.522 137.7H300.172V150.2H320.172C320.938 150.2 321.555 150.417 322.022 150.85C322.488 151.283 322.722 151.85 322.722 152.55C322.722 153.283 322.488 153.883 322.022 154.35C321.555 154.783 320.938 155 320.172 155H297.572Z" fill="#5F5FAD"/>
</svg>
